<?xml version="1.0" encoding="utf-8"?>
<svg id="master-artboard" viewBox="0 0 800 800" version="1.1" xmlns="http://www.w3.org/2000/svg" x="0px" y="0px" style="enable-background:new 0 0 1400 980;" width="800px" height="800px"><defs><style id="ee-google-fonts">@import url(https://fonts.googleapis.com/css?family=Faster+One:400);</style></defs><path d="M 320.0559387207031 307 L 315.25592041015625 307 L 321.5659484863281 292 L 328.6259460449219 292 L 329.6759338378906 307 L 324.8559265136719 307 L 324.75592041015625 304.6199951171875 L 320.9859313964844 304.6199951171875 L 320.0559387207031 307 M 324.39593505859375 300.80999755859375 L 324.39593505859375 296.6099853515625 L 324.15594482421875 296.6099853515625 L 322.4759216308594 300.80999755859375 L 324.39593505859375 300.80999755859375 M 314.4859313964844 306.8999938964844 L 304.64593505859375 305.8500061035156 L 314.9459228515625 305.8500061035156 L 314.4859313964844 306.8999938964844 M 315.4659423828125 304.5799865722656 L 305.6259460449219 303.5199890136719 L 315.9259338378906 303.5199890136719 L 315.4659423828125 304.5799865722656 M 316.4559326171875 302.2699890136719 L 306.6159362792969 301.2200012207031 L 316.88592529296875 301.2200012207031 L 316.4559326171875 302.2699890136719 M 317.4159240722656 299.9700012207031 L 307.595947265625 298.9100036621094 L 317.8659362792969 298.9100036621094 L 317.4159240722656 299.9700012207031 M 318.39593505859375 297.6600036621094 L 308.5859375 296.6099853515625 L 318.825927734375 296.6099853515625 L 318.39593505859375 297.6600036621094 M 320.345947265625 293.0299987792969 L 310.5459289550781 292 L 320.77593994140625 292 L 320.345947265625 293.0299987792969 M 319.3559265136719 295.3399963378906 L 309.5659484863281 294.29998779296875 L 319.78594970703125 294.29998779296875 L 319.3559265136719 295.3399963378906 M 320.345947265625 293.0299987792969 L 320.77593994140625 292 L 310.5459289550781 292 L 320.345947265625 293.0299987792969 ZM 345.1806945800781 301.42999267578125 L 341.30072021484375 301.42999267578125 L 340.3406982421875 307 L 335.78070068359375 307 L 338.42071533203125 292 L 347.78070068359375 292 L 346.5007019042969 295.8399963378906 L 342.28070068359375 295.8399963378906 L 341.9407043457031 297.8599853515625 L 345.8307189941406 297.8599853515625 L 345.1806945800781 301.42999267578125 M 335.0606994628906 306.92999267578125 L 324.8807067871094 305.8500061035156 L 335.2507019042969 305.8500061035156 L 335.0606994628906 306.92999267578125 M 335.8706970214844 302.29998779296875 L 325.7007141113281 301.2200012207031 L 336.0606994628906 301.2200012207031 L 335.8706970214844 302.29998779296875 M 336.28070068359375 299.989990234375 L 326.1007080078125 298.9100036621094 L 336.470703125 298.9100036621094 L 336.28070068359375 299.989990234375 M 336.6907043457031 297.69000244140625 L 326.5107116699219 296.6099853515625 L 336.8807067871094 296.6099853515625 L 336.6907043457031 297.69000244140625 M 337.1007080078125 295.3800048828125 L 326.92071533203125 294.29998779296875 L 337.2607116699219 294.29998779296875 L 337.1007080078125 295.3800048828125 M 335.460693359375 304.6000061035156 L 325.29071044921875 303.5199890136719 L 335.66070556640625 303.5199890136719 L 335.460693359375 304.6000061035156 M 337.480712890625 293.0799865722656 L 327.3307189941406 292 L 337.67071533203125 292 L 337.480712890625 293.0799865722656 Z" transform="matrix(17.74603271484375, 0, 0, 23.99646759033203, -5416.8662109375, -7307.544921875)" style="fill: rgb(255, 0, 4); white-space: pre; color: rgb(51, 51, 51);"/></svg>